<svg xmlns="http://www.w3.org/2000/svg" width="2000" height="2268.62" viewBox="0 0 2000 2268.62"><path d="M1953.2,532.33c25.71,14.83,46.8,51.21,46.8,80.91V1655.38c0,29.7-21.09,66.08-46.8,80.91l-906.4,521.24c-25.71,14.79-67.85,14.79-93.6,0L46.84,1736.29C21.05,1721.46,0,1685.08,0,1655.38V613.24c0-29.7,21.05-66.08,46.84-80.91L953.2,11.09c25.75-14.79,67.89-14.79,93.6,0l906.44,521.24Z" fill="#4231c8"/><path d="M1574.3,749.61c25.58-15,25.5-39.57-.17-54.53L1034.2,381.17c-25.71-14.91-67.73-14.91-93.39,0L400.87,695.12c-25.67,15-46.67,51.42-46.67,81.13v639.5c0,29.7,21.51,65.37,47.77,79.23l88.93,47c26.26,13.86,47.77.93,47.77-28.78V884.76c0-29.7,20.92-41.67,46.51-26.63L941,1067.43c25.55,15,67.43,15,93.06,0Z" fill="#fff"/><path d="M1252.36,695.92c25.63,14.91,25.71,39.49.17,54.53L1034,878.92c-25.63,15.13-67.51,15.13-93.1,0L722.47,750.41c-25.63-15-25.63-39.58.13-54.49L940.81,569.05c25.62-14.92,67.63-14.92,93.39,0Z" fill="#4231c8"/></svg>